<?xml version="1.0" standalone="no"?>
<!DOCTYPE svg PUBLIC "-//W3C//DTD SVG 1.1//EN"
"http://www.w3.org/Graphics/SVG/1.1/DTD/svg11.dtd">

<svg width="491" height="236" view_box="0 0 491 236"
xmlns="http://www.w3.org/2000/svg"
xmlns:link="http://www.w3.org/1999/xlink">\n\n<desc>Généré par Mocodo 2.3.7 le Sat, 19 Jun 2021 10:34:44</desc>

<rect id="frame" x="0" y="0" width="491" height="236" fill="#f7f7f7" stroke="none" stroke-width="0"/>

<!-- Association IS INCLUDE IN -->
<line x1="245" y1="43" x2="416" y2="43" stroke="#d6604d" stroke-width="2"/>
<text x="336" y="60.0" fill="#2166ac" font-family="Verdana" font-size="12">0,1</text>
<line x1="416" y1="127" x2="416" y2="43" stroke="#d6604d" stroke-width="2"/>
<text x="421.0" y="94" fill="#2166ac" font-family="Verdana" font-size="12">0,N</text>
<g id="association-IS INCLUDE IN">
	<path d="M 455 18 a 14 14 90 0 1 14 14 V 43 h -106 V 32 a 14 14 90 0 1 14 -14" fill="#f4a582" stroke="#f4a582" stroke-width="0"/>
	<path d="M 469 43.0 v 11 a 14 14 90 0 1 -14 14 H 377 a 14 14 90 0 1 -14 -14 V 43.0 H 106" fill="#fddbc7" stroke="#fddbc7" stroke-width="0"/>
	<rect x="363" y="18" width="106" height="50" fill="none" rx="14" stroke="#d6604d" stroke-width="2"/>
	<line x1="363" y1="43" x2="469" y2="43" stroke="#d6604d" stroke-width="1"/>
	<text x="370" y="35.7" fill="#000000" font-family="Verdana" font-size="12">IS INCLUDE IN</text>
</g>

<!-- Association CAN EDIT NAME -->
<line x1="416" y1="127" x2="245" y2="202" stroke="#d6604d" stroke-width="2"/>
<text x="360.564389993" y="169" fill="#2166ac" font-family="Verdana" font-size="12">1,1</text>
<g id="association-CAN EDIT NAME">
	<path d="M 288 177 a 14 14 90 0 1 14 14 V 202 h -114 V 191 a 14 14 90 0 1 14 -14" fill="#f4a582" stroke="#f4a582" stroke-width="0"/>
	<path d="M 302 202.0 v 11 a 14 14 90 0 1 -14 14 H 202 a 14 14 90 0 1 -14 -14 V 202.0 H 114" fill="#fddbc7" stroke="#fddbc7" stroke-width="0"/>
	<rect x="188" y="177" width="114" height="50" fill="none" rx="14" stroke="#d6604d" stroke-width="2"/>
	<line x1="188" y1="202" x2="302" y2="202" stroke="#d6604d" stroke-width="1"/>
	<text x="195" y="194.7" fill="#000000" font-family="Verdana" font-size="12">CAN EDIT NAME</text>
</g>

<!-- Association CHECK COMPLETE -->
<line x1="245" y1="43" x2="245" y2="127" stroke="#d6604d" stroke-width="2"/>
<text x="250.0" y="94" fill="#2166ac" font-family="Verdana" font-size="12">0,1</text>
<g id="association-CHECK COMPLETE">
	<path d="M 294 102 a 14 14 90 0 1 14 14 V 127 h -126 V 116 a 14 14 90 0 1 14 -14" fill="#f4a582" stroke="#f4a582" stroke-width="0"/>
	<path d="M 308 127.0 v 11 a 14 14 90 0 1 -14 14 H 196 a 14 14 90 0 1 -14 -14 V 127.0 H 126" fill="#fddbc7" stroke="#fddbc7" stroke-width="0"/>
	<rect x="182" y="102" width="126" height="50" fill="none" rx="14" stroke="#d6604d" stroke-width="2"/>
	<line x1="182" y1="127" x2="308" y2="127" stroke="#d6604d" stroke-width="1"/>
	<text x="189" y="119.7" fill="#000000" font-family="Verdana" font-size="12">CHECK COMPLETE</text>
</g>

<!-- Association CAN EDIT TASK -->
<line x1="245" y1="43" x2="72" y2="43" stroke="#d6604d" stroke-width="2"/>
<text x="133" y="35.0" fill="#2166ac" font-family="Verdana" font-size="12">1,1</text>
<g id="association-CAN EDIT TASK">
	<path d="M 113 18 a 14 14 90 0 1 14 14 V 43 h -110 V 32 a 14 14 90 0 1 14 -14" fill="#f4a582" stroke="#f4a582" stroke-width="0"/>
	<path d="M 127 43.0 v 11 a 14 14 90 0 1 -14 14 H 31 a 14 14 90 0 1 -14 -14 V 43.0 H 110" fill="#fddbc7" stroke="#fddbc7" stroke-width="0"/>
	<rect x="17" y="18" width="110" height="50" fill="none" rx="14" stroke="#d6604d" stroke-width="2"/>
	<line x1="17" y1="43" x2="127" y2="43" stroke="#d6604d" stroke-width="1"/>
	<text x="24" y="35.7" fill="#000000" font-family="Verdana" font-size="12">CAN EDIT TASK</text>
</g>

<!-- Association CHECK ARCHIVED -->
<line x1="245" y1="43" x2="72" y2="127" stroke="#d6604d" stroke-width="2"/>
<text x="176.177527548" y="94" fill="#2166ac" font-family="Verdana" font-size="12">0,1</text>
<g id="association-CHECK ARCHIVED">
	<path d="M 121 102 a 14 14 90 0 1 14 14 V 127 h -126 V 116 a 14 14 90 0 1 14 -14" fill="#f4a582" stroke="#f4a582" stroke-width="0"/>
	<path d="M 135 127.0 v 11 a 14 14 90 0 1 -14 14 H 23 a 14 14 90 0 1 -14 -14 V 127.0 H 126" fill="#fddbc7" stroke="#fddbc7" stroke-width="0"/>
	<rect x="9" y="102" width="126" height="50" fill="none" rx="14" stroke="#d6604d" stroke-width="2"/>
	<line x1="9" y1="127" x2="135" y2="127" stroke="#d6604d" stroke-width="1"/>
	<text x="16" y="119.7" fill="#000000" font-family="Verdana" font-size="12">CHECK ARCHIVED</text>
</g>

<!-- Entity CATEGORY -->
<g id="entity-CATEGORY">
	<g id="frame-CATEGORY">
		<rect x="350" y="102" width="132" height="25" fill="#92c5de" stroke="#92c5de" stroke-width="0"/>
		<rect x="350" y="127.0" width="132" height="25" fill="#d1e5f0" stroke="#d1e5f0" stroke-width="0"/>
		<rect x="350" y="102" width="132" height="50" fill="none" stroke="#4393c3" stroke-width="2"/>
		<line x1="350" y1="127" x2="482" y2="127" stroke="#4393c3" stroke-width="1"/>
	</g>
	<text x="382" y="119.7" fill="#000000" font-family="Verdana" font-size="12">CATEGORY</text>
	<text x="355" y="144.8" fill="#000000" font-family="Verdana" font-size="12">nom de la catégorie</text>
	<line x1="355" y1="147" x2="476" y2="147" stroke="#000000" stroke-width="1"/>
</g>

<!-- Entity TASK -->
<g id="entity-TASK">
	<g id="frame-TASK">
		<rect x="159" y="9" width="172" height="25" fill="#92c5de" stroke="#92c5de" stroke-width="0"/>
		<rect x="159" y="34.0" width="172" height="43" fill="#d1e5f0" stroke="#d1e5f0" stroke-width="0"/>
		<rect x="159" y="9" width="172" height="68" fill="none" stroke="#4393c3" stroke-width="2"/>
		<line x1="159" y1="34" x2="331" y2="34" stroke="#4393c3" stroke-width="1"/>
	</g>
	<text x="228" y="26.7" fill="#000000" font-family="Verdana" font-size="12">TASK</text>
	<text x="164" y="51.8" fill="#000000" font-family="Verdana" font-size="12">nom de la tâche</text>
	<line x1="164" y1="54" x2="262" y2="54" stroke="#000000" stroke-width="1"/>
	<text x="164" y="68.8" fill="#000000" font-family="Verdana" font-size="12">pourcentage de réalisation</text>
</g>
</svg>